<svg width="144" height="28" viewBox="0 0 144 28" fill="none" xmlns="http://www.w3.org/2000/svg">
<path d="M143.862 27.3408H0V23.9775H143.862V27.3408ZM37.207 8.92773C37.7889 8.92773 38.3533 9.00926 38.8945 9.17773L39.1025 9.24707C39.5797 9.41823 40.0174 9.66088 40.4092 9.97656L40.584 10.125C40.9784 10.4804 41.2898 10.911 41.5205 11.4033C41.8015 11.9979 41.9218 12.6675 41.9219 13.3789V22H39.0557V21.5332C38.8536 21.6565 38.6411 21.7667 38.418 21.8623L38.4131 21.8643C37.8127 22.118 37.159 22.2344 36.4688 22.2344C35.7022 22.2344 34.9755 22.081 34.3047 21.7607L34.3018 21.7588C33.6177 21.4292 33.0594 20.9402 32.6426 20.3057L32.6387 20.3008C32.202 19.626 32.0098 18.8407 32.0098 17.9961C32.0098 17.4233 32.1115 16.8739 32.3447 16.373C32.5824 15.8629 32.9443 15.4394 33.3994 15.0996C33.7947 14.8045 34.2594 14.5758 34.7734 14.3994L34.9971 14.3262C35.5944 14.1385 36.2822 14.0009 37.0498 13.9062H37.0527C37.6014 13.8406 38.0896 13.7771 38.5166 13.7168C38.764 13.6786 38.9377 13.6302 39.0557 13.5869V13.3223C39.0556 12.7561 38.8868 12.4064 38.6201 12.1572C38.3513 11.9062 37.93 11.7227 37.2285 11.7227C36.5962 11.7227 36.1369 11.8614 35.7969 12.0811L35.7949 12.083C35.425 12.3209 35.1987 12.6019 35.0693 12.9297L34.709 13.8428L33.7891 13.499L32.9727 13.1934L32.0137 12.8359L32.3936 11.8857C32.6559 11.2298 33.0452 10.6628 33.5645 10.2061L33.5684 10.2021C34.0677 9.76826 34.6383 9.44547 35.2715 9.23438L35.2744 9.2334C35.8952 9.02836 36.5411 8.92777 37.207 8.92773ZM26.0635 8.92773C26.8131 8.92773 27.5321 9.07967 28.209 9.38574H28.208C28.8864 9.68549 29.4808 10.1186 29.9863 10.6758H29.9854C30.5016 11.2395 30.8937 11.9065 31.1699 12.6611L31.2715 12.9561C31.4913 13.652 31.5947 14.402 31.5947 15.1973V16.7373H23.3711C23.4368 17.0769 23.5341 17.3903 23.6602 17.6797L23.7598 17.8867C24.0022 18.3516 24.3158 18.709 24.6973 18.9795C25.1023 19.2624 25.6104 19.4247 26.2695 19.4248C26.7585 19.4248 27.1141 19.3425 27.3701 19.2217C27.7027 19.0622 27.9413 18.886 28.1104 18.7051C28.3344 18.4653 28.4764 18.2619 28.5605 18.0967L28.9766 17.2783L29.8271 17.623L30.6162 17.9424L31.582 18.334L31.1504 19.2832C30.9274 19.7738 30.5956 20.2296 30.1865 20.6553L30.1875 20.6562C29.74 21.1221 29.1886 21.4897 28.5586 21.7744C27.8714 22.0873 27.0993 22.2275 26.2695 22.2275C25.112 22.2275 24.0559 21.938 23.1426 21.3271C22.2521 20.7315 21.5731 19.9185 21.1035 18.918C20.6343 17.918 20.4121 16.8027 20.4121 15.5947C20.4122 14.3828 20.6341 13.2646 21.1025 12.2607L21.1045 12.2559C21.5733 11.2632 22.2325 10.4494 23.0889 9.84766C23.9666 9.23105 24.9694 8.92782 26.0635 8.92773ZM59.3896 22H56.5518V21.4287C56.3802 21.5491 56.2004 21.6601 56.0107 21.7588L56.0039 21.7627C55.3748 22.0837 54.6711 22.2275 53.9229 22.2275C52.8506 22.2275 51.8734 21.9269 51.0342 21.3066C50.2188 20.704 49.6086 19.887 49.1885 18.8975L49.1855 18.8916C48.7709 17.8963 48.5762 16.7841 48.5762 15.5742C48.5762 14.3711 48.7742 13.2635 49.1953 12.2715L49.1963 12.2686C49.6208 11.2763 50.2333 10.4573 51.0488 9.85449C51.8862 9.23091 52.8604 8.92773 53.9297 8.92773C54.6839 8.92773 55.3922 9.07346 56.0215 9.4043H56.0205C56.1987 9.49571 56.3682 9.59807 56.5303 9.70898V5.4541H59.3896V22ZM66.3447 8.92773C67.4368 8.92778 68.4388 9.22716 69.3164 9.83789C70.1753 10.4356 70.8345 11.2487 71.3037 12.2422C71.7783 13.2472 72.0039 14.3673 72.0039 15.5811C72.0039 16.7948 71.7783 17.9149 71.3037 18.9199C70.8932 19.7891 70.3368 20.5194 69.6289 21.0889L69.3125 21.3262C68.4351 21.9308 67.4347 22.2275 66.3447 22.2275C65.2546 22.2275 64.2534 21.9309 63.376 21.3262L63.373 21.3232C62.5142 20.7255 61.8539 19.9135 61.3848 18.9199C60.9102 17.9149 60.6856 16.7948 60.6855 15.5811C60.6855 14.3634 60.9099 13.2423 61.3857 12.2402C61.8549 11.2475 62.5147 10.4352 63.373 9.83789C64.2506 9.22728 65.2527 8.92773 66.3447 8.92773ZM107.138 8.92773C107.887 8.92773 108.606 9.07967 109.283 9.38574H109.282C109.961 9.68549 110.555 10.1186 111.061 10.6758H111.06C111.576 11.2395 111.968 11.9065 112.244 12.6611L112.346 12.9561C112.566 13.652 112.669 14.402 112.669 15.1973V16.7373H104.445C104.511 17.0769 104.608 17.3903 104.734 17.6797L104.834 17.8867C105.076 18.3516 105.39 18.709 105.771 18.9795C106.177 19.2624 106.685 19.4247 107.344 19.4248C107.833 19.4248 108.188 19.3425 108.444 19.2217C108.777 19.0622 109.016 18.886 109.185 18.7051C109.409 18.4653 109.551 18.2619 109.635 18.0967L110.051 17.2783L110.901 17.623L111.69 17.9424L112.656 18.334L112.225 19.2832C112.002 19.7738 111.67 20.2296 111.261 20.6553L111.262 20.6562C110.814 21.1221 110.263 21.4897 109.633 21.7744C108.946 22.0873 108.174 22.2275 107.344 22.2275C106.186 22.2275 105.13 21.938 104.217 21.3271C103.326 20.7315 102.647 19.9185 102.178 18.918C101.708 17.918 101.486 16.8027 101.486 15.5947C101.486 14.3828 101.708 13.2646 102.177 12.2607L102.179 12.2559C102.648 11.2632 103.307 10.4494 104.163 9.84766C105.041 9.23105 106.044 8.92782 107.138 8.92773ZM137.138 8.92773C137.887 8.92773 138.606 9.07967 139.283 9.38574H139.282C139.961 9.68549 140.555 10.1186 141.061 10.6758H141.06C141.576 11.2395 141.968 11.9065 142.244 12.6611L142.346 12.9561C142.566 13.652 142.669 14.402 142.669 15.1973V16.7373H134.445C134.511 17.0769 134.608 17.3903 134.734 17.6797L134.834 17.8867C135.076 18.3516 135.39 18.709 135.771 18.9795C136.177 19.2624 136.685 19.4247 137.344 19.4248C137.833 19.4248 138.188 19.3425 138.444 19.2217C138.777 19.0622 139.016 18.886 139.185 18.7051C139.409 18.4653 139.551 18.2619 139.635 18.0967L140.051 17.2783L140.901 17.623L141.69 17.9424L142.656 18.334L142.225 19.2832C142.002 19.7738 141.67 20.2296 141.261 20.6553L141.262 20.6562C140.814 21.1221 140.263 21.4897 139.633 21.7744C138.946 22.0873 138.174 22.2275 137.344 22.2275C136.186 22.2275 135.13 21.938 134.217 21.3271C133.326 20.7315 132.647 19.9185 132.178 18.918C131.708 17.918 131.486 16.8027 131.486 15.5947C131.486 14.3828 131.708 13.2646 132.177 12.2607L132.179 12.2559C132.648 11.2632 133.307 10.4494 134.163 9.84766C135.041 9.23105 136.044 8.92782 137.138 8.92773ZM85.3379 5.25586C86.2632 5.25588 87.128 5.40948 87.916 5.7373H87.915C88.67 6.04457 89.3386 6.46661 89.9102 7.00781H89.9111C90.4724 7.5306 90.9305 8.12611 91.2783 8.79199C91.6231 9.44323 91.8603 10.1229 91.9834 10.8281L92.1875 12H89.2627L89.1074 11.1885C89.0343 10.8086 88.8961 10.435 88.6865 10.0654L88.6846 10.0615C88.4801 9.69721 88.2141 9.36623 87.8809 9.06738L87.8711 9.05859C87.557 8.77018 87.1871 8.53748 86.7529 8.3623C86.3459 8.19809 85.8786 8.10842 85.3379 8.1084C84.5708 8.1084 83.8756 8.30955 83.2314 8.71875L83.2305 8.71973C82.6096 9.11281 82.0837 9.707 81.6689 10.5527C81.2748 11.3663 81.0537 12.4117 81.0537 13.7275C81.0537 15.0539 81.2752 16.1033 81.6689 16.916L81.8291 17.2217C82.2148 17.9049 82.6838 18.4013 83.2246 18.7451C83.8694 19.1472 84.5669 19.3467 85.3379 19.3467C85.8782 19.3467 86.3456 19.2583 86.7529 19.0986C87.1897 18.9224 87.5612 18.6907 87.876 18.4053C88.2117 18.1004 88.4793 17.7652 88.6846 17.3994C88.8955 17.0234 89.0342 16.6462 89.1074 16.2656L89.2627 15.4541H92.1914L91.9824 16.6289C91.8589 17.3253 91.6219 17.9995 91.2783 18.6484C90.9317 19.3121 90.4762 19.9095 89.9189 20.4395C89.3453 20.9847 88.6731 21.4121 87.9141 21.7256L87.9111 21.7266C87.1246 22.0481 86.2612 22.1992 85.3379 22.1992C83.9474 22.1992 82.6828 21.8425 81.5801 21.1074L81.5771 21.1055C80.4865 20.3727 79.6492 19.3532 79.0557 18.0859L79.0547 18.083C78.461 16.8039 78.1797 15.3434 78.1797 13.7275C78.1797 12.1117 78.4611 10.6512 79.0547 9.37207L79.0557 9.36816C79.6494 8.10051 80.4876 7.08283 81.5801 6.35449C82.6824 5.61481 83.947 5.25586 85.3379 5.25586ZM128.699 9.09082H130.993V11.8652H128.699V18.4219C128.699 18.7388 128.76 18.9091 128.81 18.9951C128.888 19.1167 128.974 19.1893 129.07 19.2383C129.215 19.3043 129.37 19.3398 129.546 19.3398C129.655 19.3398 129.719 19.331 129.747 19.3252L129.755 19.3232C129.828 19.3086 129.89 19.2906 129.942 19.2715L130.966 18.8994L131.25 19.9512L131.463 20.7393L131.704 21.6309L130.834 21.9414C130.651 22.0068 130.458 22.0595 130.259 22.1006L130.258 22.0986C130.011 22.1539 129.751 22.1777 129.489 22.1777C128.879 22.1777 128.295 22.0395 127.749 21.7666L127.745 21.7646C127.18 21.479 126.721 21.0606 126.376 20.5273C126.002 19.949 125.84 19.2832 125.84 18.5781V11.8652H124.228V9.09082H125.84V6.47754H128.699V9.09082ZM10.7041 2.32324L8.57129 5.4541H8.57715L8.81543 6.11523L11.8506 14.5244H11.8584V14.5469L14.0645 20.6602L14.5312 21.9531V9.09082H17.376V9.46387C18.0482 9.11149 18.7891 8.94147 19.5791 8.94141H19.8066C19.9028 8.94141 19.9979 8.94455 20.0908 8.95117L21.0195 9.01758V11.9092L19.9365 11.8193C19.8649 11.8134 19.7846 11.8042 19.6973 11.7939L19.6631 11.79L19.6299 11.7842C19.6271 11.7838 19.6211 11.783 19.6113 11.7822C19.5932 11.7809 19.5666 11.7803 19.5303 11.7803C19.0736 11.7803 18.7034 11.8754 18.3955 12.0439C18.0818 12.2183 17.8438 12.4526 17.665 12.7568L17.6621 12.7607C17.494 13.0441 17.3975 13.3848 17.3975 13.8125V22H11.4814L11.2441 21.3359L9.81934 17.3477H4.9082L3.4834 21.3359L3.24609 22H0.179688L0.663086 20.6602L2.86914 14.5469V14.5244H2.87695L5.91211 6.11523L5.99023 5.89941H5.16895L6.08984 4.38086L7.99316 1.24121L8.28516 0.759766H11.7686L10.7041 2.32324ZM95.9717 22H93.1055V5.4541H95.9717V22ZM99.2012 5.80371C99.5809 5.83961 99.9263 5.9986 100.206 6.26367H100.207C100.546 6.57979 100.737 7.00308 100.737 7.47754C100.737 7.94043 100.557 8.36041 100.227 8.67969C100.022 8.87713 99.7825 9.01514 99.5225 9.09082H100.461V22H97.6016V9.09082H98.5527C98.2936 9.01562 98.0567 8.88018 97.8545 8.69141L97.8428 8.67969C97.5533 8.40017 97.3789 8.04354 97.3398 7.64844L97.3311 7.47754L97.3398 7.30566C97.3789 6.91083 97.5535 6.55478 97.8428 6.27539L97.9697 6.16406C98.2747 5.92111 98.642 5.79596 99.0342 5.7959L99.2012 5.80371ZM118.821 8.94922C119.699 8.94922 120.516 9.13715 121.24 9.54492H121.241C121.967 9.95088 122.535 10.5328 122.935 11.2686L123.08 11.5547C123.394 12.234 123.536 12.993 123.536 13.8057V22H120.669V13.8408C120.669 13.1259 120.463 12.6487 120.125 12.3047L120.119 12.2988C119.786 11.9544 119.334 11.751 118.658 11.751C118.203 11.751 117.835 11.8494 117.527 12.0215C117.216 12.1959 116.976 12.4353 116.795 12.7559L116.792 12.7598C116.622 13.0591 116.519 13.4366 116.519 13.9258V22H113.652V9.09082H116.497V9.49121C117.194 9.12019 117.978 8.94923 118.821 8.94922ZM52.9844 21.126C53.0835 21.1487 53.1845 21.1675 53.2871 21.1826C53.3895 21.1977 53.4937 21.2083 53.5996 21.2158C53.4934 21.2082 53.3889 21.1968 53.2861 21.1816C53.0813 21.1515 52.8834 21.1062 52.6924 21.0459L52.9844 21.126ZM25.5332 21.1777C25.5504 21.1801 25.5677 21.1824 25.585 21.1846C25.5677 21.1824 25.5504 21.1801 25.5332 21.1777ZM106.474 21.1553C106.528 21.1638 106.582 21.172 106.637 21.1787C106.582 21.1716 106.528 21.1641 106.474 21.1553ZM136.474 21.1553C136.528 21.1638 136.582 21.172 136.637 21.1787C136.582 21.1716 136.528 21.1641 136.474 21.1553ZM106.29 21.125C106.342 21.1358 106.396 21.1426 106.449 21.1514C106.352 21.135 106.256 21.1157 106.162 21.0938C106.205 21.1038 106.247 21.1161 106.29 21.125ZM136.29 21.125C136.342 21.1358 136.396 21.1426 136.449 21.1514C136.352 21.135 136.256 21.1157 136.162 21.0938C136.205 21.1038 136.247 21.1161 136.29 21.125ZM25.2158 21.125C25.2242 21.1267 25.2328 21.1272 25.2412 21.1289C25.217 21.1241 25.193 21.1185 25.1689 21.1133C25.1847 21.1167 25.2 21.1218 25.2158 21.125ZM105.963 21.0449C105.987 21.0518 106.012 21.056 106.036 21.0625C105.998 21.0524 105.96 21.0423 105.922 21.0312C105.936 21.0353 105.949 21.041 105.963 21.0449ZM135.963 21.0449C135.987 21.0518 136.012 21.056 136.036 21.0625C135.998 21.0524 135.96 21.0423 135.922 21.0312C135.936 21.0353 135.949 21.041 135.963 21.0449ZM24.8887 21.0449C24.8999 21.0481 24.9116 21.0496 24.9229 21.0527C24.9059 21.0481 24.8889 21.0439 24.8721 21.0391C24.8777 21.0407 24.883 21.0433 24.8887 21.0449ZM24.5312 20.9248C24.5559 20.9342 24.5806 20.9432 24.6055 20.9521C24.5806 20.9432 24.5559 20.9342 24.5312 20.9248ZM105.604 20.9238C105.627 20.9328 105.65 20.9426 105.674 20.9512C105.65 20.9427 105.627 20.9328 105.604 20.9238ZM135.604 20.9238C135.627 20.9328 135.65 20.9426 135.674 20.9512C135.65 20.9427 135.627 20.9328 135.604 20.9238ZM52.1396 20.8203C52.2002 20.8512 52.2631 20.8769 52.3252 20.9043C52.2487 20.8706 52.173 20.8351 52.0986 20.7969L52.1396 20.8203ZM27.4639 20.2568C27.406 20.2754 27.3467 20.2921 27.2861 20.3076C27.4078 20.2766 27.5241 20.2397 27.6348 20.1963L27.4639 20.2568ZM108.538 20.2568C108.48 20.2754 108.421 20.2921 108.36 20.3076C108.482 20.2766 108.598 20.2397 108.709 20.1963L108.538 20.2568ZM138.538 20.2568C138.48 20.2754 138.421 20.2921 138.36 20.3076C138.482 20.2766 138.598 20.2397 138.709 20.1963L138.538 20.2568ZM51.7158 19.4482C51.7605 19.4959 51.8066 19.542 51.8535 19.5869C51.8066 19.5419 51.7605 19.496 51.7158 19.4482ZM39.0557 16.4023C38.7898 16.456 38.5121 16.5054 38.2227 16.5488L38.208 16.5508C37.9255 16.5891 37.6496 16.6246 37.3809 16.6582L37.375 16.6592C36.6285 16.7481 36.0726 16.8805 35.6797 17.0361L35.6748 17.0381C35.2983 17.1851 35.1149 17.3416 35.0273 17.459C34.9408 17.5812 34.876 17.753 34.876 18.0244C34.876 18.5099 35.0292 18.8024 35.2881 19.0205C35.594 19.2783 35.9924 19.4316 36.5537 19.4316C37.065 19.4316 37.4799 19.3102 37.8301 19.0898C38.2029 18.8534 38.4974 18.5309 38.7178 18.1006C38.9349 17.6766 39.0557 17.1758 39.0557 16.5752V16.4023ZM54.001 11.7373C53.4568 11.7373 53.0403 11.8867 52.6992 12.1582L52.6982 12.1592C52.3269 12.4543 52.0161 12.8748 51.7861 13.4648C51.5585 14.061 51.4356 14.7568 51.4355 15.5664C51.4355 16.376 51.5586 17.0755 51.7871 17.6777L51.877 17.8936C52.095 18.3759 52.3736 18.7363 52.6992 19.0029L52.8301 19.0996C53.1457 19.3104 53.5245 19.4248 54.001 19.4248C54.535 19.4248 54.94 19.2774 55.2705 19.0127C55.6434 18.713 55.9522 18.2906 56.1777 17.7021L56.1787 17.6982C56.4109 17.0982 56.5381 16.3925 56.5381 15.5664C56.538 14.74 56.4112 14.0411 56.1807 13.4531L56.1777 13.4463C55.9527 12.8589 55.6463 12.4436 55.2793 12.1553L55.2715 12.1494C54.9408 11.8843 54.5354 11.7374 54.001 11.7373ZM66.3447 11.7373C65.7872 11.7373 65.3389 11.8918 64.957 12.1846L64.9531 12.1875C64.5383 12.5021 64.1958 12.939 63.9385 13.5342L63.9375 13.5371C63.6819 14.1248 63.5449 14.8009 63.5449 15.5811C63.5449 16.3611 63.6795 17.0408 63.9316 17.6348L64.0322 17.8506C64.2758 18.3372 64.5833 18.7062 64.9463 18.9814H64.9453C65.333 19.2721 65.7859 19.4248 66.3447 19.4248C66.9048 19.4248 67.3544 19.2711 67.7363 18.9814L67.7393 18.9795C68.1565 18.6657 68.4964 18.2306 68.748 17.6396L68.75 17.6348C69.0067 17.0409 69.1445 16.3612 69.1445 15.5811C69.1445 14.8008 69.0066 14.1248 68.751 13.5371L68.75 13.5342C68.4927 12.9392 68.151 12.502 67.7363 12.1875L67.7314 12.1846C67.3496 11.8919 66.9021 11.7374 66.3447 11.7373ZM51.5312 19.2373C51.5834 19.3021 51.6377 19.3644 51.6934 19.4248C51.6376 19.3641 51.5835 19.3013 51.5312 19.2363V19.2373ZM5.91602 14.5244H8.81055L7.36328 10.4717L5.91602 14.5244ZM26.0635 11.7373C25.5402 11.7374 25.0997 11.8805 24.708 12.1611L24.7061 12.1621C24.2928 12.4574 23.9495 12.8653 23.6836 13.416C23.6032 13.5856 23.5351 13.7634 23.4775 13.9492H28.6084C28.5462 13.7047 28.4615 13.4765 28.3535 13.2637C28.1034 12.7708 27.776 12.3997 27.3721 12.127C26.9893 11.8685 26.5625 11.7373 26.0635 11.7373ZM107.138 11.7373C106.614 11.7374 106.174 11.8805 105.782 12.1611L105.78 12.1621C105.367 12.4574 105.024 12.8653 104.758 13.416C104.677 13.5856 104.609 13.7634 104.552 13.9492H109.683C109.62 13.7047 109.536 13.4765 109.428 13.2637C109.178 12.7708 108.85 12.3997 108.446 12.127C108.064 11.8685 107.637 11.7373 107.138 11.7373ZM137.138 11.7373C136.614 11.7374 136.174 11.8805 135.782 12.1611L135.78 12.1621C135.367 12.4574 135.024 12.8653 134.758 13.416C134.677 13.5856 134.609 13.7634 134.552 13.9492H139.683C139.62 13.7047 139.536 13.4765 139.428 13.2637C139.178 12.7708 138.85 12.3997 138.446 12.127C138.064 11.8685 137.637 11.7373 137.138 11.7373ZM69.7803 13.415C69.8149 13.5087 69.8463 13.6039 69.876 13.7002H69.877C69.8472 13.6038 69.8151 13.5087 69.7803 13.415ZM16.6621 11.3975C16.6379 11.4357 16.6171 11.4761 16.5947 11.5156C16.6243 11.4632 16.6551 11.4117 16.6875 11.3613L16.6621 11.3975ZM52.2812 11.2266C52.2258 11.2634 52.1725 11.3038 52.1191 11.3447C52.1795 11.2984 52.2409 11.2543 52.3037 11.2129L52.2812 11.2266ZM17.7393 11.2725C17.7167 11.287 17.6949 11.3024 17.6729 11.3174C17.7489 11.2656 17.8279 11.2166 17.9102 11.1709L17.7393 11.2725ZM65.5273 10.8291C65.4472 10.8481 65.3685 10.8706 65.291 10.8955C65.3717 10.8696 65.4537 10.8467 65.5371 10.8271L65.5273 10.8291ZM19.7734 10.7959C19.7464 10.792 19.7176 10.7875 19.6865 10.7852L19.6631 10.7842C19.703 10.7869 19.7398 10.7912 19.7734 10.7959ZM25.7305 9.93945C25.6212 9.94716 25.5134 9.95824 25.4072 9.97363H25.4082C25.6204 9.94291 25.8389 9.92775 26.0635 9.92773C25.9509 9.92774 25.8399 9.93174 25.7305 9.93945ZM106.805 9.93945C106.695 9.94716 106.588 9.95824 106.481 9.97363H106.482C106.695 9.94291 106.913 9.92775 107.138 9.92773C107.025 9.92774 106.914 9.93174 106.805 9.93945ZM136.805 9.93945C136.695 9.94716 136.588 9.95824 136.481 9.97363H136.482C136.695 9.94291 136.913 9.92775 137.138 9.92773C137.025 9.92774 136.914 9.93174 136.805 9.93945Z" fill="black"/>
</svg>
